<mxfile host="Electron" agent="Mozilla/5.0 (Macintosh; Intel Mac OS X 10_15_7) AppleWebKit/537.36 (KHTML, like Gecko) draw.io/27.0.2 Chrome/134.0.6998.205 Electron/35.3.0 Safari/537.36" version="27.0.2">
  <diagram name="Page-1" id="2qnpe3ND26Y3Zji--ZoO">
    <mxGraphModel dx="1186" dy="750" grid="0" gridSize="10" guides="1" tooltips="1" connect="1" arrows="1" fold="1" page="1" pageScale="1" pageWidth="850" pageHeight="1100" math="0" shadow="0">
      <root>
        <mxCell id="0" />
        <mxCell id="1" parent="0" />
        <mxCell id="0cF-kN6dWR6a9IYdRQfF-1" value="notification" style="shape=umlFrame;whiteSpace=wrap;html=1;pointerEvents=0;sketch=1;curveFitting=1;jiggle=2;labelBackgroundColor=none;fillColor=#FAE5C7;strokeColor=#0F8B8D;fontColor=#143642;" parent="1" vertex="1">
          <mxGeometry x="154" y="60" width="522" height="773" as="geometry" />
        </mxCell>
        <mxCell id="0cF-kN6dWR6a9IYdRQfF-8" style="rounded=0;orthogonalLoop=1;jettySize=auto;html=1;exitX=1;exitY=0.3333333333333333;exitDx=0;exitDy=0;exitPerimeter=0;entryX=0;entryY=0.5;entryDx=0;entryDy=0;endArrow=none;startFill=0;sketch=1;curveFitting=1;jiggle=2;labelBackgroundColor=none;strokeColor=#A8201A;fontColor=default;" parent="1" source="0cF-kN6dWR6a9IYdRQfF-2" target="0cF-kN6dWR6a9IYdRQfF-7" edge="1">
          <mxGeometry relative="1" as="geometry" />
        </mxCell>
        <mxCell id="0cF-kN6dWR6a9IYdRQfF-10" style="edgeStyle=none;shape=connector;rounded=0;orthogonalLoop=1;jettySize=auto;html=1;exitX=1;exitY=0.3333333333333333;exitDx=0;exitDy=0;exitPerimeter=0;entryX=0;entryY=0.5;entryDx=0;entryDy=0;strokeColor=#A8201A;align=center;verticalAlign=middle;fontFamily=Helvetica;fontSize=11;fontColor=default;labelBackgroundColor=none;startFill=0;endArrow=none;sketch=1;curveFitting=1;jiggle=2;" parent="1" source="0cF-kN6dWR6a9IYdRQfF-2" target="0cF-kN6dWR6a9IYdRQfF-9" edge="1">
          <mxGeometry relative="1" as="geometry" />
        </mxCell>
        <mxCell id="0cF-kN6dWR6a9IYdRQfF-25" style="edgeStyle=none;shape=connector;rounded=0;orthogonalLoop=1;jettySize=auto;html=1;exitX=1;exitY=0.3333333333333333;exitDx=0;exitDy=0;exitPerimeter=0;entryX=0;entryY=0.5;entryDx=0;entryDy=0;strokeColor=#A8201A;align=center;verticalAlign=middle;fontFamily=Helvetica;fontSize=11;fontColor=default;labelBackgroundColor=none;startFill=0;endArrow=none;sketch=1;curveFitting=1;jiggle=2;" parent="1" source="0cF-kN6dWR6a9IYdRQfF-2" target="0cF-kN6dWR6a9IYdRQfF-24" edge="1">
          <mxGeometry relative="1" as="geometry" />
        </mxCell>
        <mxCell id="0cF-kN6dWR6a9IYdRQfF-2" value="doctor" style="shape=umlActor;verticalLabelPosition=bottom;verticalAlign=top;html=1;sketch=1;curveFitting=1;jiggle=2;labelBackgroundColor=none;fillColor=#FAE5C7;strokeColor=#0F8B8D;fontColor=#143642;" parent="1" vertex="1">
          <mxGeometry x="48" y="139" width="30" height="60" as="geometry" />
        </mxCell>
        <mxCell id="0cF-kN6dWR6a9IYdRQfF-11" style="edgeStyle=none;shape=connector;rounded=0;orthogonalLoop=1;jettySize=auto;html=1;exitX=1;exitY=0.3333333333333333;exitDx=0;exitDy=0;exitPerimeter=0;entryX=0;entryY=0.5;entryDx=0;entryDy=0;strokeColor=#A8201A;align=center;verticalAlign=middle;fontFamily=Helvetica;fontSize=11;fontColor=default;labelBackgroundColor=none;startFill=0;endArrow=none;sketch=1;curveFitting=1;jiggle=2;" parent="1" source="0cF-kN6dWR6a9IYdRQfF-5" target="0cF-kN6dWR6a9IYdRQfF-9" edge="1">
          <mxGeometry relative="1" as="geometry" />
        </mxCell>
        <mxCell id="0cF-kN6dWR6a9IYdRQfF-5" value="patient" style="shape=umlActor;verticalLabelPosition=bottom;verticalAlign=top;html=1;sketch=1;curveFitting=1;jiggle=2;labelBackgroundColor=none;fillColor=#FAE5C7;strokeColor=#0F8B8D;fontColor=#143642;" parent="1" vertex="1">
          <mxGeometry x="48" y="291" width="30" height="60" as="geometry" />
        </mxCell>
        <mxCell id="0cF-kN6dWR6a9IYdRQfF-19" style="edgeStyle=none;shape=connector;rounded=0;orthogonalLoop=1;jettySize=auto;html=1;exitX=0;exitY=0.3333333333333333;exitDx=0;exitDy=0;exitPerimeter=0;entryX=1;entryY=0.5;entryDx=0;entryDy=0;strokeColor=#A8201A;align=center;verticalAlign=middle;fontFamily=Helvetica;fontSize=11;fontColor=default;labelBackgroundColor=none;startFill=0;endArrow=none;sketch=1;curveFitting=1;jiggle=2;" parent="1" source="0cF-kN6dWR6a9IYdRQfF-6" target="0cF-kN6dWR6a9IYdRQfF-18" edge="1">
          <mxGeometry relative="1" as="geometry" />
        </mxCell>
        <mxCell id="0cF-kN6dWR6a9IYdRQfF-21" style="edgeStyle=none;shape=connector;rounded=0;orthogonalLoop=1;jettySize=auto;html=1;exitX=0;exitY=0.3333333333333333;exitDx=0;exitDy=0;exitPerimeter=0;entryX=1;entryY=0.5;entryDx=0;entryDy=0;strokeColor=#A8201A;align=center;verticalAlign=middle;fontFamily=Helvetica;fontSize=11;fontColor=default;labelBackgroundColor=none;startFill=0;endArrow=none;sketch=1;curveFitting=1;jiggle=2;" parent="1" source="0cF-kN6dWR6a9IYdRQfF-6" target="0cF-kN6dWR6a9IYdRQfF-20" edge="1">
          <mxGeometry relative="1" as="geometry" />
        </mxCell>
        <mxCell id="0cF-kN6dWR6a9IYdRQfF-23" style="edgeStyle=none;shape=connector;rounded=0;orthogonalLoop=1;jettySize=auto;html=1;exitX=0;exitY=0.3333333333333333;exitDx=0;exitDy=0;exitPerimeter=0;entryX=1;entryY=0.5;entryDx=0;entryDy=0;strokeColor=#A8201A;align=center;verticalAlign=middle;fontFamily=Helvetica;fontSize=11;fontColor=default;labelBackgroundColor=none;startFill=0;endArrow=none;sketch=1;curveFitting=1;jiggle=2;" parent="1" source="0cF-kN6dWR6a9IYdRQfF-6" target="0cF-kN6dWR6a9IYdRQfF-22" edge="1">
          <mxGeometry relative="1" as="geometry" />
        </mxCell>
        <mxCell id="0cF-kN6dWR6a9IYdRQfF-6" value="admin" style="shape=umlActor;verticalLabelPosition=bottom;verticalAlign=top;html=1;sketch=1;curveFitting=1;jiggle=2;labelBackgroundColor=none;fillColor=#FAE5C7;strokeColor=#0F8B8D;fontColor=#143642;" parent="1" vertex="1">
          <mxGeometry x="752" y="306" width="30" height="60" as="geometry" />
        </mxCell>
        <mxCell id="0cF-kN6dWR6a9IYdRQfF-7" value="write notification for her patients" style="ellipse;whiteSpace=wrap;html=1;sketch=1;curveFitting=1;jiggle=2;labelBackgroundColor=none;fillColor=#FAE5C7;strokeColor=#0F8B8D;fontColor=#143642;" parent="1" vertex="1">
          <mxGeometry x="268" y="129" width="140" height="70" as="geometry" />
        </mxCell>
        <mxCell id="0cF-kN6dWR6a9IYdRQfF-9" value="show her notifications" style="ellipse;whiteSpace=wrap;html=1;sketch=1;curveFitting=1;jiggle=2;labelBackgroundColor=none;fillColor=#FAE5C7;strokeColor=#0F8B8D;fontColor=#143642;" parent="1" vertex="1">
          <mxGeometry x="281" y="515" width="140" height="70" as="geometry" />
        </mxCell>
        <mxCell id="0cF-kN6dWR6a9IYdRQfF-16" style="edgeStyle=none;shape=connector;rounded=0;orthogonalLoop=1;jettySize=auto;html=1;exitX=1;exitY=0.3333333333333333;exitDx=0;exitDy=0;exitPerimeter=0;entryX=0;entryY=0.5;entryDx=0;entryDy=0;strokeColor=#A8201A;align=center;verticalAlign=middle;fontFamily=Helvetica;fontSize=11;fontColor=default;labelBackgroundColor=none;startFill=0;endArrow=none;sketch=1;curveFitting=1;jiggle=2;" parent="1" source="0cF-kN6dWR6a9IYdRQfF-13" target="0cF-kN6dWR6a9IYdRQfF-9" edge="1">
          <mxGeometry relative="1" as="geometry" />
        </mxCell>
        <mxCell id="0cF-kN6dWR6a9IYdRQfF-13" value="nurse" style="shape=umlActor;verticalLabelPosition=bottom;verticalAlign=top;html=1;fontFamily=Helvetica;fontSize=11;fontColor=#143642;labelBackgroundColor=none;sketch=1;curveFitting=1;jiggle=2;fillColor=#FAE5C7;strokeColor=#0F8B8D;" parent="1" vertex="1">
          <mxGeometry x="48" y="443" width="30" height="60" as="geometry" />
        </mxCell>
        <mxCell id="0cF-kN6dWR6a9IYdRQfF-17" style="edgeStyle=none;shape=connector;rounded=0;orthogonalLoop=1;jettySize=auto;html=1;exitX=1;exitY=0.3333333333333333;exitDx=0;exitDy=0;exitPerimeter=0;entryX=0;entryY=0.5;entryDx=0;entryDy=0;strokeColor=#A8201A;align=center;verticalAlign=middle;fontFamily=Helvetica;fontSize=11;fontColor=default;labelBackgroundColor=none;startFill=0;endArrow=none;sketch=1;curveFitting=1;jiggle=2;" parent="1" source="0cF-kN6dWR6a9IYdRQfF-14" target="0cF-kN6dWR6a9IYdRQfF-9" edge="1">
          <mxGeometry relative="1" as="geometry" />
        </mxCell>
        <mxCell id="0cF-kN6dWR6a9IYdRQfF-14" value="pharmacy" style="shape=umlActor;verticalLabelPosition=bottom;verticalAlign=top;html=1;fontFamily=Helvetica;fontSize=11;fontColor=#143642;labelBackgroundColor=none;sketch=1;curveFitting=1;jiggle=2;fillColor=#FAE5C7;strokeColor=#0F8B8D;" parent="1" vertex="1">
          <mxGeometry x="48" y="595" width="30" height="60" as="geometry" />
        </mxCell>
        <mxCell id="0cF-kN6dWR6a9IYdRQfF-18" value="show all notification" style="ellipse;whiteSpace=wrap;html=1;sketch=1;curveFitting=1;jiggle=2;labelBackgroundColor=none;fillColor=#FAE5C7;strokeColor=#0F8B8D;fontColor=#143642;" parent="1" vertex="1">
          <mxGeometry x="446" y="306" width="140" height="70" as="geometry" />
        </mxCell>
        <mxCell id="0cF-kN6dWR6a9IYdRQfF-20" value="delete and edit notifications" style="ellipse;whiteSpace=wrap;html=1;sketch=1;curveFitting=1;jiggle=2;labelBackgroundColor=none;fillColor=#FAE5C7;strokeColor=#0F8B8D;fontColor=#143642;" parent="1" vertex="1">
          <mxGeometry x="446" y="411.5" width="140" height="70" as="geometry" />
        </mxCell>
        <mxCell id="0cF-kN6dWR6a9IYdRQfF-22" value="write notification for doctors or patient or nurse or pharmacy or local" style="ellipse;whiteSpace=wrap;html=1;sketch=1;curveFitting=1;jiggle=2;labelBackgroundColor=none;fillColor=#FAE5C7;strokeColor=#0F8B8D;fontColor=#143642;" parent="1" vertex="1">
          <mxGeometry x="446" y="197" width="140" height="70" as="geometry" />
        </mxCell>
        <mxCell id="0cF-kN6dWR6a9IYdRQfF-24" value="delete and edit her notifications" style="ellipse;whiteSpace=wrap;html=1;sketch=1;curveFitting=1;jiggle=2;labelBackgroundColor=none;fillColor=#FAE5C7;strokeColor=#0F8B8D;fontColor=#143642;" parent="1" vertex="1">
          <mxGeometry x="268" y="221" width="140" height="70" as="geometry" />
        </mxCell>
      </root>
    </mxGraphModel>
  </diagram>
</mxfile>
